<svg viewBox="0 0 50 50" xmlns="http://www.w3.org/2000/svg">
  <defs>
    <!-- 蓝色能量主体渐变 -->
    <radialGradient id="blueEnergyGradient" cx="0.3" cy="0.3" r="0.8">
      <stop offset="0%" style="stop-color:#E0F6FF;stop-opacity:1" />
      <stop offset="50%" style="stop-color:#87CEEB;stop-opacity:0.9" />
      <stop offset="100%" style="stop-color:#4169E1;stop-opacity:0.7" />
    </radialGradient>
    
    <!-- 水波纹渐变 -->
    <linearGradient id="waveGradient" x1="0%" y1="0%" x2="100%" y2="100%">
      <stop offset="0%" style="stop-color:#00BFFF;stop-opacity:0.6" />
      <stop offset="50%" style="stop-color:#FFFFFF;stop-opacity:0.8" />
      <stop offset="100%" style="stop-color:#00BFFF;stop-opacity:0.6" />
    </linearGradient>
    
    <!-- 光晕效果 -->
    <radialGradient id="blueGlow" cx="0.5" cy="0.5" r="0.8">
      <stop offset="60%" style="stop-color:#87CEEB;stop-opacity:0" />
      <stop offset="100%" style="stop-color:#87CEEB;stop-opacity:0.5" />
    </radialGradient>
    
    <!-- 高光渐变 -->
    <radialGradient id="blueHighlight" cx="0.3" cy="0.3" r="0.5">
      <stop offset="0%" style="stop-color:#FFFFFF;stop-opacity:0.9" />
      <stop offset="100%" style="stop-color:#FFFFFF;stop-opacity:0" />
    </radialGradient>
  </defs>
  
  <!-- 外层光晕 -->
  <circle cx="25" cy="25" r="24" fill="url(#blueGlow)" />
  
  <!-- 能量主体 -->
  <circle cx="25" cy="25" r="18" fill="url(#blueEnergyGradient)" stroke="#4169E1" stroke-width="0.5" />
  
  <!-- 水波纹装饰 -->
  <g transform="translate(25,25)" stroke="url(#waveGradient)" stroke-width="1.5" fill="none" opacity="0.7">
    <path d="M-15,-8 Q-5,-12 5,-8 Q15,-4 15,4" />
    <path d="M-15,0 Q-5,-4 5,0 Q15,4 15,8" />
    <path d="M-15,8 Q-5,4 5,8 Q15,12 15,16" />
  </g>
  
  <!-- 海洋泡泡装饰 -->
  <g fill="#FFFFFF" opacity="0.6">
    <circle cx="20" cy="18" r="2" />
    <circle cx="32" cy="22" r="1.5" />
    <circle cx="18" cy="32" r="1" />
    <circle cx="30" cy="30" r="1.8" />
    <circle cx="15" cy="25" r="1.2" />
  </g>
  
  <!-- 高光效果 -->
  <ellipse cx="20" cy="18" rx="6" ry="4" fill="url(#blueHighlight)" />
  
  <!-- 水滴装饰 -->
  <g fill="#B0E0E6" opacity="0.5">
    <path d="M35,15 Q37,12 35,10 Q33,12 35,15" />
    <path d="M15,35 Q17,32 15,30 Q13,32 15,35" />
  </g>
  
  <!-- 流动效果 -->
  <g fill="#00BFFF" opacity="0.4">
    <circle cx="22" cy="20" r="0.8">
      <animate attributeName="cy" values="20;15;20" dur="2.5s" repeatCount="indefinite" />
      <animate attributeName="opacity" values="0.4;0.8;0.4" dur="2.5s" repeatCount="indefinite" />
    </circle>
    <circle cx="28" cy="30" r="1">
      <animate attributeName="cy" values="30;25;30" dur="3s" repeatCount="indefinite" begin="0.5s" />
      <animate attributeName="opacity" values="0.4;0.8;0.4" dur="3s" repeatCount="indefinite" begin="0.5s" />
    </circle>
    <circle cx="20" cy="25" r="0.6">
      <animate attributeName="cy" values="25;20;25" dur="2.2s" repeatCount="indefinite" begin="1s" />
      <animate attributeName="opacity" values="0.4;0.8;0.4" dur="2.2s" repeatCount="indefinite" begin="1s" />
    </circle>
  </g>
  
  <!-- 脉动动画 -->
  <animateTransform
    attributeName="transform"
    attributeType="XML"
    type="scale"
    values="1;1.1;1"
    dur="4s"
    repeatCount="indefinite"/>
</svg> 