<svg viewBox="0 0 50 50" xmlns="http://www.w3.org/2000/svg">
  <defs>
    <!-- 糖果主体渐变 -->
    <radialGradient id="candyMainGradient" cx="0.3" cy="0.3" r="0.8">
      <stop offset="0%" style="stop-color:#FFFFE0;stop-opacity:1" />
      <stop offset="50%" style="stop-color:#FFB6C1;stop-opacity:0.9" />
      <stop offset="100%" style="stop-color:#FF69B4;stop-opacity:0.7" />
    </radialGradient>
    
    <!-- 糖果条纹渐变 -->
    <linearGradient id="stripeGradient" x1="0%" y1="0%" x2="100%" y2="100%">
      <stop offset="0%" style="stop-color:#FF1493;stop-opacity:0.6" />
      <stop offset="50%" style="stop-color:#FFFFFF;stop-opacity:0.8" />
      <stop offset="100%" style="stop-color:#FF1493;stop-opacity:0.6" />
    </linearGradient>
    
    <!-- 光晕效果 -->
    <radialGradient id="candyGlow" cx="0.5" cy="0.5" r="0.8">
      <stop offset="60%" style="stop-color:#FFB6C1;stop-opacity:0" />
      <stop offset="100%" style="stop-color:#FFB6C1;stop-opacity:0.5" />
    </radialGradient>
    
    <!-- 高光渐变 -->
    <radialGradient id="candyHighlight" cx="0.3" cy="0.3" r="0.5">
      <stop offset="0%" style="stop-color:#FFFFFF;stop-opacity:0.9" />
      <stop offset="100%" style="stop-color:#FFFFFF;stop-opacity:0" />
    </radialGradient>
  </defs>
  
  <!-- 外层光晕 -->
  <circle cx="25" cy="25" r="24" fill="url(#candyGlow)" />
  
  <!-- 糖果主体 -->
  <circle cx="25" cy="25" r="18" fill="url(#candyMainGradient)" stroke="#FF69B4" stroke-width="0.5" />
  
  <!-- 糖果条纹装饰 -->
  <g transform="translate(25,25)" stroke="url(#stripeGradient)" stroke-width="2" fill="none" opacity="0.7">
    <path d="M-12,-8 Q0,-4 12,8" />
    <path d="M-12,0 Q0,4 12,0" />
    <path d="M-8,-12 Q4,0 8,12" />
  </g>
  
  <!-- 糖果包装纸效果 -->
  <g transform="translate(25,25)" stroke="#FFB6C1" stroke-width="1" fill="none" opacity="0.5">
    <path d="M-18,0 Q-14,-6 -8,-4 Q0,-8 8,-4 Q14,-6 18,0" />
    <path d="M-18,0 Q-14,6 -8,4 Q0,8 8,4 Q14,6 18,0" />
  </g>
  
  <!-- 高光效果 -->
  <ellipse cx="20" cy="18" rx="6" ry="4" fill="url(#candyHighlight)" />
  
  <!-- 小装饰点 -->
  <g fill="#FFFFFF" opacity="0.6">
    <circle cx="22" cy="16" r="1.5" />
    <circle cx="30" cy="22" r="1" />
    <circle cx="18" cy="30" r="0.8" />
    <circle cx="32" cy="30" r="1.2" />
  </g>
  
  <!-- 闪烁效果 -->
  <g fill="#FFFF00" opacity="0.8">
    <circle cx="15" cy="15" r="0.8">
      <animate attributeName="opacity" values="0;1;0" dur="1.5s" repeatCount="indefinite" />
    </circle>
    <circle cx="35" cy="20" r="0.6">
      <animate attributeName="opacity" values="0;1;0" dur="2s" repeatCount="indefinite" begin="0.5s" />
    </circle>
    <circle cx="20" cy="35" r="0.7">
      <animate attributeName="opacity" values="0;1;0" dur="1.8s" repeatCount="indefinite" begin="1s" />
    </circle>
    <circle cx="35" cy="35" r="0.5">
      <animate attributeName="opacity" values="0;1;0" dur="2.2s" repeatCount="indefinite" begin="0.3s" />
    </circle>
  </g>
  
  <!-- 旋转动画 -->
  <animateTransform
    attributeName="transform"
    attributeType="XML"
    type="rotate"
    from="0 25 25"
    to="360 25 25"
    dur="8s"
    repeatCount="indefinite"/>
</svg> 