<svg viewBox="0 0 60 60" xmlns="http://www.w3.org/2000/svg">
  <defs>
    <!-- 黄金主体渐变 -->
    <radialGradient id="goldenEnergyGradient" cx="0.3" cy="0.3" r="0.8">
      <stop offset="0%" style="stop-color:#FFFACD;stop-opacity:1" />
      <stop offset="40%" style="stop-color:#FFD700;stop-opacity:0.9" />
      <stop offset="80%" style="stop-color:#FFA500;stop-opacity:0.8" />
      <stop offset="100%" style="stop-color:#FF8C00;stop-opacity:0.7" />
    </radialGradient>
    
    <!-- 光芒渐变 -->
    <linearGradient id="rayGradient" x1="0%" y1="0%" x2="100%" y2="100%">
      <stop offset="0%" style="stop-color:#FFFF00;stop-opacity:0.8" />
      <stop offset="50%" style="stop-color:#FFD700;stop-opacity:0.6" />
      <stop offset="100%" style="stop-color:#FFA500;stop-opacity:0.4" />
    </linearGradient>
    
    <!-- 强烈光晕 -->
    <radialGradient id="goldenGlow" cx="0.5" cy="0.5" r="0.9">
      <stop offset="50%" style="stop-color:#FFD700;stop-opacity:0" />
      <stop offset="100%" style="stop-color:#FFD700;stop-opacity:0.7" />
    </radialGradient>
    
    <!-- 高光渐变 -->
    <radialGradient id="goldenHighlight" cx="0.3" cy="0.3" r="0.5">
      <stop offset="0%" style="stop-color:#FFFFFF;stop-opacity:1" />
      <stop offset="100%" style="stop-color:#FFFFFF;stop-opacity:0" />
    </radialGradient>
    
    <!-- 钻石纹理渐变 -->
    <linearGradient id="diamondPattern" x1="0%" y1="0%" x2="100%" y2="100%">
      <stop offset="0%" style="stop-color:#FFFFFF;stop-opacity:0.6" />
      <stop offset="50%" style="stop-color:#FFD700;stop-opacity:0.3" />
      <stop offset="100%" style="stop-color:#FFFFFF;stop-opacity:0.6" />
    </linearGradient>
  </defs>
  
  <!-- 外层强烈光晕 -->
  <circle cx="30" cy="30" r="28" fill="url(#goldenGlow)" />
  
  <!-- 光芒效果 -->
  <g transform="translate(30,30)" opacity="0.6">
    <!-- 8道主光芒 -->
    <g stroke="url(#rayGradient)" stroke-width="2" fill="none">
      <line x1="0" y1="-25" x2="0" y2="-15" />
      <line x1="18" y1="-18" x2="12" y2="-12" />
      <line x1="25" y1="0" x2="15" y2="0" />
      <line x1="18" y1="18" x2="12" y2="12" />
      <line x1="0" y1="25" x2="0" y2="15" />
      <line x1="-18" y1="18" x2="-12" y2="12" />
      <line x1="-25" y1="0" x2="-15" y2="0" />
      <line x1="-18" y1="-18" x2="-12" y2="-12" />
    </g>
    
    <!-- 闪烁光芒动画 -->
    <animateTransform
      attributeName="transform"
      attributeType="XML"
      type="rotate"
      values="0;360"
      dur="8s"
      repeatCount="indefinite"/>
  </g>
  
  <!-- 能量主体（六角形钻石形状） -->
  <path d="M30,10 L45,20 L45,40 L30,50 L15,40 L15,20 Z" 
        fill="url(#goldenEnergyGradient)" stroke="#FF8C00" stroke-width="1" />
  
  <!-- 钻石切面装饰 -->
  <g fill="url(#diamondPattern)" opacity="0.5">
    <path d="M30,10 L37.5,15 L30,30 L22.5,15 Z" />
    <path d="M30,30 L37.5,45 L30,50 L22.5,45 Z" />
    <path d="M15,20 L22.5,15 L30,30 L22.5,45 Z" />
    <path d="M45,20 L37.5,15 L30,30 L37.5,45 Z" />
  </g>
  
  <!-- 高光效果 -->
  <ellipse cx="25" cy="20" rx="8" ry="5" fill="url(#goldenHighlight)" />
  
  <!-- 内部光芒 -->
  <g transform="translate(30,30)" stroke="#FFFF00" stroke-width="1" fill="none" opacity="0.7">
    <path d="M0,-15 L5,-5 M0,-15 L-5,-5" />
    <path d="M10,-10 L5,-5 M10,-10 L5,5" />
    <path d="M15,0 L5,5 M15,0 L5,-5" />
    <path d="M10,10 L5,5 M10,10 L-5,5" />
    <path d="M0,15 L-5,5 M0,15 L5,5" />
    <path d="M-10,10 L-5,5 M-10,10 L-5,-5" />
    <path d="M-15,0 L-5,-5 M-15,0 L-5,5" />
    <path d="M-10,-10 L-5,-5 M-10,-10 L5,-5" />
  </g>
  
  <!-- 魔法粒子装饰 -->
  <g fill="#FFFF00" opacity="0.8">
    <circle cx="18" cy="15" r="1.5">
      <animate attributeName="opacity" values="0.8;1;0.8" dur="1.5s" repeatCount="indefinite" />
    </circle>
    <circle cx="42" cy="20" r="1">
      <animate attributeName="opacity" values="0.8;1;0.8" dur="2s" repeatCount="indefinite" begin="0.3s" />
    </circle>
    <circle cx="45" cy="45" r="1.2">
      <animate attributeName="opacity" values="0.8;1;0.8" dur="1.8s" repeatCount="indefinite" begin="0.6s" />
    </circle>
    <circle cx="15" cy="45" r="0.8">
      <animate attributeName="opacity" values="0.8;1;0.8" dur="2.2s" repeatCount="indefinite" begin="0.9s" />
    </circle>
  </g>
  
  <!-- 价值指示器 -->
  <g transform="translate(45,15)">
    <circle r="8" fill="#FF4500" opacity="0.8" />
    <text x="0" y="3" text-anchor="middle" font-family="Comic Sans MS" font-size="8" 
          font-weight="bold" fill="#FFFFFF">×5</text>
  </g>
  
  <!-- 整体脉动动画 -->
  <animateTransform
    attributeName="transform"
    attributeType="XML"
    type="scale"
    values="1;1.15;1"
    dur="3s"
    repeatCount="indefinite"/>
</svg> 