<svg viewBox="0 0 50 50" xmlns="http://www.w3.org/2000/svg">
  <defs>
    <!-- 绿色能量主体渐变 -->
    <radialGradient id="greenEnergyGradient" cx="0.3" cy="0.3" r="0.8">
      <stop offset="0%" style="stop-color:#F0FFF0;stop-opacity:1" />
      <stop offset="50%" style="stop-color:#98FB98;stop-opacity:0.9" />
      <stop offset="100%" style="stop-color:#228B22;stop-opacity:0.7" />
    </radialGradient>
    
    <!-- 叶脉渐变 -->
    <linearGradient id="leafVeinGradient" x1="0%" y1="0%" x2="100%" y2="100%">
      <stop offset="0%" style="stop-color:#32CD32;stop-opacity:0.6" />
      <stop offset="50%" style="stop-color:#FFFFFF;stop-opacity:0.8" />
      <stop offset="100%" style="stop-color:#32CD32;stop-opacity:0.6" />
    </linearGradient>
    
    <!-- 光晕效果 -->
    <radialGradient id="greenGlow" cx="0.5" cy="0.5" r="0.8">
      <stop offset="60%" style="stop-color:#98FB98;stop-opacity:0" />
      <stop offset="100%" style="stop-color:#98FB98;stop-opacity:0.5" />
    </radialGradient>
    
    <!-- 高光渐变 -->
    <radialGradient id="greenHighlight" cx="0.3" cy="0.3" r="0.5">
      <stop offset="0%" style="stop-color:#FFFFFF;stop-opacity:0.9" />
      <stop offset="100%" style="stop-color:#FFFFFF;stop-opacity:0" />
    </radialGradient>
  </defs>
  
  <!-- 外层光晕 -->
  <circle cx="25" cy="25" r="24" fill="url(#greenGlow)" />
  
  <!-- 能量主体 -->
  <circle cx="25" cy="25" r="18" fill="url(#greenEnergyGradient)" stroke="#228B22" stroke-width="0.5" />
  
  <!-- 叶脉装饰 -->
  <g transform="translate(25,25)" stroke="url(#leafVeinGradient)" stroke-width="1.2" fill="none" opacity="0.7">
    <!-- 主叶脉 -->
    <path d="M0,-15 Q-3,-8 -6,0 Q-3,8 0,15" />
    <path d="M0,-15 Q3,-8 6,0 Q3,8 0,15" />
    <!-- 侧叶脉 -->
    <path d="M-6,-8 Q-12,-6 -15,-2" />
    <path d="M6,-8 Q12,-6 15,-2" />
    <path d="M-6,8 Q-12,6 -15,2" />
    <path d="M6,8 Q12,6 15,2" />
  </g>
  
  <!-- 叶片装饰 -->
  <g fill="#90EE90" opacity="0.6">
    <path d="M15,20 Q12,18 15,16 Q18,18 15,20" />
    <path d="M35,25 Q32,23 35,21 Q38,23 35,25" />
    <path d="M20,35 Q17,33 20,31 Q23,33 20,35" />
    <path d="M30,15 Q27,13 30,11 Q33,13 30,15" />
  </g>
  
  <!-- 高光效果 -->
  <ellipse cx="20" cy="18" rx="6" ry="4" fill="url(#greenHighlight)" />
  
  <!-- 自然粒子装饰 -->
  <g fill="#FFFFFF" opacity="0.6">
    <circle cx="22" cy="16" r="1.5" />
    <circle cx="30" cy="22" r="1" />
    <circle cx="18" cy="30" r="0.8" />
    <circle cx="32" cy="30" r="1.2" />
  </g>
  
  <!-- 生长动画粒子 -->
  <g fill="#32CD32" opacity="0.5">
    <circle cx="20" cy="20" r="0.8">
      <animate attributeName="r" values="0.8;1.5;0.8" dur="3s" repeatCount="indefinite" />
      <animate attributeName="opacity" values="0.5;0.8;0.5" dur="3s" repeatCount="indefinite" />
    </circle>
    <circle cx="30" cy="25" r="1">
      <animate attributeName="r" values="1;1.8;1" dur="2.5s" repeatCount="indefinite" begin="0.5s" />
      <animate attributeName="opacity" values="0.5;0.8;0.5" dur="2.5s" repeatCount="indefinite" begin="0.5s" />
    </circle>
    <circle cx="25" cy="32" r="0.6">
      <animate attributeName="r" values="0.6;1.2;0.6" dur="2.8s" repeatCount="indefinite" begin="1s" />
      <animate attributeName="opacity" values="0.5;0.8;0.5" dur="2.8s" repeatCount="indefinite" begin="1s" />
    </circle>
  </g>
  
  <!-- 微风摆动效果 -->
  <animateTransform
    attributeName="transform"
    attributeType="XML"
    type="rotate"
    values="0 25 25;2 25 25;0 25 25;-2 25 25;0 25 25"
    dur="6s"
    repeatCount="indefinite"/>
</svg> 