<svg viewBox="0 0 100 100" xmlns="http://www.w3.org/2000/svg">
  <defs>
    <!-- 黑猫主体渐变 -->
    <radialGradient id="blackCatGradient" cx="0.3" cy="0.3" r="0.8">
      <stop offset="0%" style="stop-color:#696969;stop-opacity:0.9" />
      <stop offset="50%" style="stop-color:#2F2F2F;stop-opacity:0.8" />
      <stop offset="100%" style="stop-color:#000000;stop-opacity:0.7" />
    </radialGradient>
    
    <!-- 神秘光晕 -->
    <radialGradient id="mysticalGlow" cx="0.5" cy="0.5" r="0.8">
      <stop offset="60%" style="stop-color:#4B0082;stop-opacity:0" />
      <stop offset="100%" style="stop-color:#4B0082;stop-opacity:0.5" />
    </radialGradient>
    
    <!-- 高光渐变 -->
    <radialGradient id="blackHighlight" cx="0.3" cy="0.3" r="0.5">
      <stop offset="0%" style="stop-color:#FFFFFF;stop-opacity:0.6" />
      <stop offset="100%" style="stop-color:#FFFFFF;stop-opacity:0" />
    </radialGradient>
    
    <!-- 月光渐变 -->
    <linearGradient id="moonlightGradient" x1="0%" y1="0%" x2="100%" y2="100%">
      <stop offset="0%" style="stop-color:#E6E6FA;stop-opacity:0.4" />
      <stop offset="50%" style="stop-color:#9370DB;stop-opacity:0.3" />
      <stop offset="100%" style="stop-color:#4B0082;stop-opacity:0.2" />
    </linearGradient>
    
    <!-- 星光图案 -->
    <pattern id="starPattern" x="0" y="0" width="25" height="25" patternUnits="userSpaceOnUse">
      <rect width="25" height="25" fill="none"/>
      <g fill="#E6E6FA" opacity="0.3">
        <circle cx="5" cy="5" r="0.5" />
        <circle cx="20" cy="15" r="0.8" />
        <circle cx="12" cy="20" r="0.3" />
      </g>
    </pattern>
  </defs>
  
  <!-- 外层神秘光晕 -->
  <circle cx="50" cy="50" r="48" fill="url(#mysticalGlow)" />
  
  <!-- 泡泡主体 -->
  <circle cx="50" cy="50" r="40" fill="url(#blackCatGradient)" stroke="#4B0082" stroke-width="1" stroke-opacity="0.5" />
  
  <!-- 星光装饰 -->
  <circle cx="50" cy="50" r="35" fill="url(#starPattern)" opacity="0.6" />
  
  <!-- 月光效果 -->
  <circle cx="50" cy="50" r="38" fill="none" stroke="url(#moonlightGradient)" stroke-width="2" opacity="0.4" />
  
  <!-- 猫咪脸部特征 -->
  <g transform="translate(50,50)">
    <!-- 猫耳朵 -->
    <g fill="#000000" stroke="#4B0082" stroke-width="1">
      <path d="M-12,-25 L-18,-35 L-6,-32 Z" />
      <path d="M12,-25 L6,-32 L18,-35 Z" />
      <!-- 耳朵内侧 -->
      <path d="M-12,-28 L-15,-32 L-9,-30 Z" fill="#2F2F2F" />
      <path d="M12,-28 L9,-30 L15,-32 Z" fill="#2F2F2F" />
    </g>
    
    <!-- 猫眼睛（发光黄色） -->
    <g>
      <ellipse cx="-8" cy="-8" rx="5" ry="7" fill="#FFD700" />
      <ellipse cx="8" cy="-8" rx="5" ry="7" fill="#FFD700" />
      <!-- 瞳孔 -->
      <ellipse cx="-8" cy="-8" rx="1.5" ry="5" fill="#000000" />
      <ellipse cx="8" cy="-8" rx="1.5" ry="5" fill="#000000" />
      <!-- 眼睛发光效果 -->
      <circle cx="-8" cy="-8" r="6" fill="none" stroke="#FFFF00" stroke-width="1" opacity="0.5" />
      <circle cx="8" cy="-8" r="6" fill="none" stroke="#FFFF00" stroke-width="1" opacity="0.5" />
      <!-- 眼睛高光 -->
      <circle cx="-7" cy="-10" r="1.5" fill="#FFFFFF" opacity="0.8" />
      <circle cx="9" cy="-10" r="1.5" fill="#FFFFFF" opacity="0.8" />
    </g>
    
    <!-- 猫鼻子 -->
    <path d="M0,0 L-2,3 L2,3 Z" fill="#FF69B4" />
    
    <!-- 猫嘴巴 -->
    <g stroke="#FFFFFF" stroke-width="1.5" fill="none" opacity="0.8">
      <path d="M0,3 Q-4,6 -8,4" />
      <path d="M0,3 Q4,6 8,4" />
    </g>
    
    <!-- 猫胡须 -->
    <g stroke="#E6E6FA" stroke-width="1.5" fill="none" opacity="0.7">
      <line x1="-22" y1="-2" x2="-12" y2="0" />
      <line x1="-22" y1="2" x2="-12" y2="3" />
      <line x1="12" y1="0" x2="22" y2="-2" />
      <line x1="12" y1="3" x2="22" y2="2" />
    </g>
  </g>
  
  <!-- 高光效果 -->
  <ellipse cx="40" cy="35" rx="8" ry="6" fill="url(#blackHighlight)" />
  
  <!-- 神秘粒子装饰 -->
  <g fill="#9370DB" opacity="0.6">
    <circle cx="25" cy="25" r="1">
      <animate attributeName="opacity" values="0.6;1;0.6" dur="2.5s" repeatCount="indefinite" />
    </circle>
    <circle cx="75" cy="30" r="0.8">
      <animate attributeName="opacity" values="0.6;1;0.6" dur="3s" repeatCount="indefinite" begin="0.5s" />
    </circle>
    <circle cx="30" cy="75" r="1.2">
      <animate attributeName="opacity" values="0.6;1;0.6" dur="2.2s" repeatCount="indefinite" begin="1s" />
    </circle>
    <circle cx="70" cy="70" r="0.6">
      <animate attributeName="opacity" values="0.6;1;0.6" dur="2.8s" repeatCount="indefinite" begin="0.3s" />
    </circle>
  </g>
  
  <!-- 月亮装饰 -->
  <g transform="translate(75,25)" fill="#E6E6FA" opacity="0.8">
    <circle r="4" />
    <circle cx="1" cy="-1" r="3" fill="#4B0082" opacity="0.3" />
    <animate attributeName="opacity" values="0.8;1;0.8" dur="4s" repeatCount="indefinite" />
  </g>
  
  <!-- 魔法星星装饰 -->
  <g fill="#FFFF00" opacity="0.7">
    <g transform="translate(20,30)">
      <path d="M0,-3 L1,-1 L3,0 L1,1 L0,3 L-1,1 L-3,0 L-1,-1 Z">
        <animate attributeName="opacity" values="0.7;1;0.7" dur="2s" repeatCount="indefinite" />
        <animateTransform attributeName="transform" type="rotate" values="0;360" dur="8s" repeatCount="indefinite" />
      </path>
    </g>
    <g transform="translate(80,70)">
      <path d="M0,-2 L0.5,-0.5 L2,0 L0.5,0.5 L0,2 L-0.5,0.5 L-2,0 L-0.5,-0.5 Z">
        <animate attributeName="opacity" values="0.7;1;0.7" dur="2.5s" repeatCount="indefinite" begin="1s" />
        <animateTransform attributeName="transform" type="rotate" values="360;0" dur="6s" repeatCount="indefinite" />
      </path>
    </g>
  </g>
</svg> 