<svg viewBox="0 0 100 100" xmlns="http://www.w3.org/2000/svg">
  <defs>
    <!-- 甜甜圈主体渐变 -->
    <radialGradient id="donutGradient" cx="0.3" cy="0.3" r="0.8">
      <stop offset="0%" style="stop-color:#DEB887;stop-opacity:1" />
      <stop offset="50%" style="stop-color:#CD853F;stop-opacity:0.9" />
      <stop offset="100%" style="stop-color:#8B4513;stop-opacity:0.8" />
    </radialGradient>
    
    <!-- 糖霜渐变 -->
    <radialGradient id="frostingGradient" cx="0.3" cy="0.3" r="0.8">
      <stop offset="0%" style="stop-color:#FFB6C1;stop-opacity:0.9" />
      <stop offset="50%" style="stop-color:#FF69B4;stop-opacity:0.8" />
      <stop offset="100%" style="stop-color:#FF1493;stop-opacity:0.7" />
    </radialGradient>
    
    <!-- 巧克力糖霜渐变 -->
    <radialGradient id="chocolateFrostingGradient" cx="0.3" cy="0.3" r="0.8">
      <stop offset="0%" style="stop-color:#D2691E;stop-opacity:0.9" />
      <stop offset="50%" style="stop-color:#A0522D;stop-opacity:0.8" />
      <stop offset="100%" style="stop-color:#8B4513;stop-opacity:0.7" />
    </radialGradient>
    
    <!-- 甜品光晕 -->
    <radialGradient id="sweetGlow" cx="0.5" cy="0.5" r="0.8">
      <stop offset="60%" style="stop-color:#FFB6C1;stop-opacity:0" />
      <stop offset="100%" style="stop-color:#FFB6C1;stop-opacity:0.5" />
    </radialGradient>
    
    <!-- 高光渐变 -->
    <radialGradient id="donutHighlight" cx="0.3" cy="0.3" r="0.5">
      <stop offset="0%" style="stop-color:#FFFFFF;stop-opacity:0.8" />
      <stop offset="100%" style="stop-color:#FFFFFF;stop-opacity:0" />
    </radialGradient>
    
    <!-- 撒糖图案 -->
    <pattern id="sprinklePattern" x="0" y="0" width="15" height="15" patternUnits="userSpaceOnUse">
      <rect width="15" height="15" fill="none"/>
      <g>
        <!-- 彩色小条状撒糖 -->
        <rect x="3" y="2" width="4" height="1" fill="#FF0000" rx="0.5" ry="0.5" transform="rotate(15)" />
        <rect x="8" y="5" width="3" height="1" fill="#00FF00" rx="0.5" ry="0.5" transform="rotate(45)" />
        <rect x="2" y="8" width="4" height="1" fill="#0000FF" rx="0.5" ry="0.5" transform="rotate(-30)" />
        <rect x="10" y="10" width="3" height="1" fill="#FFFF00" rx="0.5" ry="0.5" transform="rotate(75)" />
        <rect x="5" y="12" width="4" height="1" fill="#FF00FF" rx="0.5" ry="0.5" transform="rotate(-15)" />
        <rect x="12" y="3" width="3" height="1" fill="#00FFFF" rx="0.5" ry="0.5" transform="rotate(60)" />
        <rect x="1" y="11" width="3" height="1" fill="#FFA500" rx="0.5" ry="0.5" transform="rotate(-45)" />
      </g>
    </pattern>
  </defs>
  
  <!-- 外层甜品光晕 -->
  <circle cx="50" cy="50" r="48" fill="url(#sweetGlow)" />
  
  <!-- 甜甜圈主体 -->
  <circle cx="50" cy="50" r="40" fill="url(#donutGradient)" stroke="#8B4513" stroke-width="1.5" />
  
  <!-- 甜甜圈内圈（洞） -->
  <circle cx="50" cy="50" r="15" fill="none" stroke="#8B4513" stroke-width="2" />
  
  <!-- 糖霜层 -->
  <g>
    <!-- 主糖霜区域 -->
    <path d="M50,10 A40,40 0 0,1 85,35 Q80,30 75,32 Q70,28 65,30 Q60,25 55,28 Q50,22 45,28 Q40,25 35,30 Q30,28 25,32 Q20,30 15,35 A40,40 0 0,1 50,10 Z" 
          fill="url(#frostingGradient)" opacity="0.8" />
    
    <!-- 巧克力糖霜区域 -->
    <path d="M50,90 A40,40 0 0,1 15,65 Q20,70 25,68 Q30,72 35,70 Q40,75 45,72 Q50,78 55,72 Q60,75 65,70 Q70,72 75,68 Q80,70 85,65 A40,40 0 0,1 50,90 Z" 
          fill="url(#chocolateFrostingGradient)" opacity="0.8" />
    
    <!-- 糖霜边缘装饰 -->
    <g fill="url(#frostingGradient)" opacity="0.6">
      <circle cx="25" cy="40" r="3" />
      <circle cx="75" cy="45" r="2.5" />
      <circle cx="30" cy="60" r="2" />
      <circle cx="70" cy="55" r="3" />
    </g>
  </g>
  
  <!-- 撒糖装饰 -->
  <circle cx="50" cy="50" r="35" fill="url(#sprinklePattern)" opacity="0.8" />
  
  <!-- 甜甜圈纹理 -->
  <g stroke="#A0522D" stroke-width="0.5" fill="none" opacity="0.4">
    <circle cx="50" cy="50" r="32" />
    <circle cx="50" cy="50" r="28" />
    <circle cx="50" cy="50" r="24" />
    <circle cx="50" cy="50" r="20" />
  </g>
  
  <!-- 可爱表情 -->
  <g transform="translate(50,50)" fill="#8B4513" opacity="0.8">
    <!-- 眼睛 -->
    <circle cx="-8" cy="-5" r="2.5" />
    <circle cx="8" cy="-5" r="2.5" />
    <circle cx="-8" cy="-5" r="1" fill="#FFFFFF" />
    <circle cx="8" cy="-5" r="1" fill="#FFFFFF" />
    
    <!-- 嘴巴 -->
    <path d="M-6,8 Q0,12 6,8" stroke="#8B4513" stroke-width="1.5" fill="none" />
    
    <!-- 腮红 -->
    <ellipse cx="-12" cy="3" rx="2" ry="1.5" fill="#FFB6C1" opacity="0.6" />
    <ellipse cx="12" cy="3" rx="2" ry="1.5" fill="#FFB6C1" opacity="0.6" />
  </g>
  
  <!-- 高光效果 -->
  <ellipse cx="40" cy="35" rx="8" ry="6" fill="url(#donutHighlight)" />
  
  <!-- 额外撒糖粒子 -->
  <g>
    <rect x="22" y="25" width="3" height="0.8" fill="#FF0000" rx="0.4" ry="0.4" transform="rotate(25 22 25)">
      <animate attributeName="opacity" values="1;0.5;1" dur="2s" repeatCount="indefinite" />
    </rect>
    <rect x="75" y="30" width="2.5" height="0.8" fill="#00FF00" rx="0.4" ry="0.4" transform="rotate(75 75 30)">
      <animate attributeName="opacity" values="1;0.5;1" dur="2.5s" repeatCount="indefinite" begin="0.5s" />
    </rect>
    <rect x="30" y="75" width="3.5" height="0.8" fill="#0000FF" rx="0.4" ry="0.4" transform="rotate(-15 30 75)">
      <animate attributeName="opacity" values="1;0.5;1" dur="1.8s" repeatCount="indefinite" begin="1s" />
    </rect>
    <rect x="70" y="70" width="2.8" height="0.8" fill="#FFFF00" rx="0.4" ry="0.4" transform="rotate(45 70 70)">
      <animate attributeName="opacity" values="1;0.5;1" dur="2.2s" repeatCount="indefinite" begin="0.3s" />
    </rect>
    <rect x="25" y="65" width="3.2" height="0.8" fill="#FF00FF" rx="0.4" ry="0.4" transform="rotate(-45 25 65)">
      <animate attributeName="opacity" values="1;0.5;1" dur="2.8s" repeatCount="indefinite" begin="0.8s" />
    </rect>
  </g>
  
  <!-- 糖霜滴落效果 -->
  <g fill="url(#frostingGradient)" opacity="0.7">
    <ellipse cx="35" cy="85" rx="2" ry="4" />
    <ellipse cx="65" cy="88" rx="1.5" ry="3" />
    <ellipse cx="50" cy="87" rx="1.8" ry="3.5" />
  </g>
  
  <!-- 甜蜜粒子 -->
  <g fill="#FFB6C1" opacity="0.6">
    <circle cx="20" cy="35" r="1">
      <animate attributeName="opacity" values="0.6;1;0.6" dur="3s" repeatCount="indefinite" />
      <animate attributeName="cy" values="35;30;35" dur="3s" repeatCount="indefinite" />
    </circle>
    <circle cx="80" cy="40" r="0.8">
      <animate attributeName="opacity" values="0.6;1;0.6" dur="2.5s" repeatCount="indefinite" begin="0.5s" />
      <animate attributeName="cy" values="40;35;40" dur="2.5s" repeatCount="indefinite" begin="0.5s" />
    </circle>
    <circle cx="25" cy="70" r="1.2">
      <animate attributeName="opacity" values="0.6;1;0.6" dur="2.8s" repeatCount="indefinite" begin="1s" />
      <animate attributeName="cy" values="70;65;70" dur="2.8s" repeatCount="indefinite" begin="1s" />
    </circle>
    <circle cx="75" cy="65" r="0.9">
      <animate attributeName="opacity" values="0.6;1;0.6" dur="3.2s" repeatCount="indefinite" begin="0.2s" />
      <animate attributeName="cy" values="65;60;65" dur="3.2s" repeatCount="indefinite" begin="0.2s" />
    </circle>
  </g>
  
  <!-- 星星装饰 -->
  <g fill="#FFD700" opacity="0.7">
    <g transform="translate(15,50)">
      <path d="M0,-2.5 L0.7,-0.7 L2.5,0 L0.7,0.7 L0,2.5 L-0.7,0.7 L-2.5,0 L-0.7,-0.7 Z">
        <animate attributeName="opacity" values="0.7;1;0.7" dur="2s" repeatCount="indefinite" />
        <animateTransform attributeName="transform" type="rotate" values="0;360" dur="8s" repeatCount="indefinite" />
      </path>
    </g>
    <g transform="translate(85,50)">
      <path d="M0,-2 L0.5,-0.5 L2,0 L0.5,0.5 L0,2 L-0.5,0.5 L-2,0 L-0.5,-0.5 Z">
        <animate attributeName="opacity" values="0.7;1;0.7" dur="2.5s" repeatCount="indefinite" begin="1s" />
        <animateTransform attributeName="transform" type="rotate" values="360;0" dur="6s" repeatCount="indefinite" />
      </path>
    </g>
  </g>
  
  <!-- 甜蜜光环 -->
  <g transform="translate(50,50)" opacity="0.4">
    <circle r="45" fill="none" stroke="#FFB6C1" stroke-width="1">
      <animate attributeName="opacity" values="0.4;0.7;0.4" dur="4s" repeatCount="indefinite" />
    </circle>
    <circle r="47" fill="none" stroke="#FF69B4" stroke-width="0.5">
      <animate attributeName="opacity" values="0.4;0.7;0.4" dur="4s" repeatCount="indefinite" begin="2s" />
    </circle>
  </g>
  
  <!-- 香甜蒸汽 -->
  <g fill="#FFFFFF" opacity="0.3">
    <ellipse cx="45" cy="20" rx="1.5" ry="3">
      <animate attributeName="opacity" values="0.3;0.7;0.3" dur="3s" repeatCount="indefinite" />
      <animate attributeName="ry" values="3;5;3" dur="3s" repeatCount="indefinite" />
      <animate attributeName="cy" values="20;15;20" dur="3s" repeatCount="indefinite" />
    </ellipse>
    <ellipse cx="55" cy="18" rx="1.2" ry="2.5">
      <animate attributeName="opacity" values="0.3;0.7;0.3" dur="2.5s" repeatCount="indefinite" begin="0.5s" />
      <animate attributeName="ry" values="2.5;4;2.5" dur="2.5s" repeatCount="indefinite" begin="0.5s" />
      <animate attributeName="cy" values="18;13;18" dur="2.5s" repeatCount="indefinite" begin="0.5s" />
    </ellipse>
  </g>
</svg> 