<svg viewBox="0 0 100 100" xmlns="http://www.w3.org/2000/svg">
  <defs>
    <!-- 主泡泡渐变 -->
    <radialGradient id="mintBubbleGradient" cx="0.3" cy="0.3" r="0.8">
      <stop offset="0%" style="stop-color:#F0FFF0;stop-opacity:0.9" />
      <stop offset="70%" style="stop-color:#98FB98;stop-opacity:0.7" />
      <stop offset="100%" style="stop-color:#32CD32;stop-opacity:0.4" />
    </radialGradient>
    
    <!-- 高光渐变 -->
    <radialGradient id="mintHighlight" cx="0.3" cy="0.3" r="0.4">
      <stop offset="0%" style="stop-color:#FFFFFF;stop-opacity:0.8" />
      <stop offset="100%" style="stop-color:#FFFFFF;stop-opacity:0" />
    </radialGradient>
    
    <!-- 边缘光晕 -->
    <radialGradient id="mintGlow" cx="0.5" cy="0.5" r="0.6">
      <stop offset="80%" style="stop-color:#98FB98;stop-opacity:0" />
      <stop offset="100%" style="stop-color:#98FB98;stop-opacity:0.3" />
    </radialGradient>
    
    <!-- 叶片纹理 -->
    <pattern id="leafPattern" x="0" y="0" width="15" height="15" patternUnits="userSpaceOnUse">
      <path d="M7.5,2 Q12,7.5 7.5,13 Q3,7.5 7.5,2 Z" fill="#90EE90" opacity="0.3"/>
    </pattern>
  </defs>
  
  <!-- 外层光晕 -->
  <circle cx="50" cy="50" r="48" fill="url(#mintGlow)" />
  
  <!-- 主泡泡 -->
  <circle cx="50" cy="50" r="40" fill="url(#mintBubbleGradient)" stroke="#32CD32" stroke-width="1" stroke-opacity="0.3" />
  
  <!-- 叶片纹理装饰 -->
  <circle cx="50" cy="50" r="35" fill="url(#leafPattern)" opacity="0.4" />
  
  <!-- 自然装饰元素 -->
  <g stroke="#90EE90" stroke-width="1.5" fill="none" opacity="0.6">
    <!-- 小叶片 -->
    <path d="M35,35 Q32,32 35,29 Q38,32 35,35" />
    <path d="M65,40 Q62,37 65,34 Q68,37 65,40" />
    <path d="M40,65 Q37,62 40,59 Q43,62 40,65" />
    
    <!-- 藤蔓线条 -->
    <path d="M30,45 Q35,42 40,45 Q45,48 50,45" stroke-width="1" />
    <path d="M50,55 Q55,52 60,55 Q65,58 70,55" stroke-width="1" />
  </g>
  
  <!-- 高光效果 -->
  <ellipse cx="40" cy="35" rx="12" ry="8" fill="url(#mintHighlight)" />
  
  <!-- 小高光点 -->
  <circle cx="38" cy="32" r="3" fill="#FFFFFF" opacity="0.6" />
  <circle cx="45" cy="38" r="1.5" fill="#FFFFFF" opacity="0.4" />
  
  <!-- 自然粒子装饰 -->
  <g fill="#90EE90" opacity="0.5">
    <circle cx="25" cy="30" r="1.5">
      <animate attributeName="opacity" values="0.5;1;0.5" dur="3s" repeatCount="indefinite" />
    </circle>
    <circle cx="75" cy="35" r="1">
      <animate attributeName="opacity" values="0.5;1;0.5" dur="2.5s" repeatCount="indefinite" begin="0.8s" />
    </circle>
    <circle cx="30" cy="75" r="1.2">
      <animate attributeName="opacity" values="0.5;1;0.5" dur="2.8s" repeatCount="indefinite" begin="1.5s" />
    </circle>
    <circle cx="70" cy="70" r="0.8">
      <animate attributeName="opacity" values="0.5;1;0.5" dur="3.2s" repeatCount="indefinite" begin="0.3s" />
    </circle>
  </g>
  
  <!-- 清新气泡 -->
  <g fill="#FFFFFF" opacity="0.3">
    <circle cx="60" cy="25" r="2" />
    <circle cx="75" cy="60" r="1.5" />
    <circle cx="25" cy="60" r="1" />
  </g>
</svg> 