<svg viewBox="0 0 100 100" xmlns="http://www.w3.org/2000/svg">
  <defs>
    <!-- 橘猫主体渐变 -->
    <radialGradient id="orangeCatGradient" cx="0.3" cy="0.3" r="0.8">
      <stop offset="0%" style="stop-color:#FFF8DC;stop-opacity:0.9" />
      <stop offset="50%" style="stop-color:#FFB347;stop-opacity:0.8" />
      <stop offset="100%" style="stop-color:#FF8C00;stop-opacity:0.7" />
    </radialGradient>
    
    <!-- 条纹渐变 -->
    <linearGradient id="stripeGradient" x1="0%" y1="0%" x2="100%" y2="100%">
      <stop offset="0%" style="stop-color:#FF6347;stop-opacity:0.8" />
      <stop offset="50%" style="stop-color:#FF4500;stop-opacity:0.6" />
      <stop offset="100%" style="stop-color:#FF6347;stop-opacity:0.8" />
    </linearGradient>
    
    <!-- 光晕效果 */
    <radialGradient id="orangeGlow" cx="0.5" cy="0.5" r="0.8">
      <stop offset="60%" style="stop-color:#FFB347;stop-opacity:0" />
      <stop offset="100%" style="stop-color:#FFB347;stop-opacity:0.4" />
    </radialGradient>
    
    <!-- 高光渐变 -->
    <radialGradient id="orangeHighlight" cx="0.3" cy="0.3" r="0.5">
      <stop offset="0%" style="stop-color:#FFFFFF;stop-opacity:0.8" />
      <stop offset="100%" style="stop-color:#FFFFFF;stop-opacity:0" />
    </radialGradient>
    
    <!-- 条纹图案 -->
    <pattern id="catStripes" x="0" y="0" width="20" height="20" patternUnits="userSpaceOnUse">
      <rect width="20" height="20" fill="none"/>
      <path d="M5,0 Q10,5 5,10 Q0,15 5,20" stroke="#FF4500" stroke-width="3" fill="none" opacity="0.6"/>
      <path d="M15,0 Q20,5 15,10 Q10,15 15,20" stroke="#FF4500" stroke-width="3" fill="none" opacity="0.6"/>
    </pattern>
  </defs>
  
  <!-- 外层光晕 -->
  <circle cx="50" cy="50" r="48" fill="url(#orangeGlow)" />
  
  <!-- 泡泡主体 -->
  <circle cx="50" cy="50" r="40" fill="url(#orangeCatGradient)" stroke="#FF8C00" stroke-width="1" stroke-opacity="0.3" />
  
  <!-- 橘猫条纹 -->
  <circle cx="50" cy="50" r="35" fill="url(#catStripes)" opacity="0.7" />
  
  <!-- 猫咪脸部特征 -->
  <g transform="translate(50,50)">
    <!-- 猫耳朵 -->
    <g fill="#FF8C00" stroke="#FF6347" stroke-width="1">
      <path d="M-12,-25 L-18,-35 L-6,-32 Z" />
      <path d="M12,-25 L6,-32 L18,-35 Z" />
      <!-- 耳朵内侧 -->
      <path d="M-12,-28 L-15,-32 L-9,-30 Z" fill="#FFB347" />
      <path d="M12,-28 L9,-30 L15,-32 Z" fill="#FFB347" />
    </g>
    
    <!-- 猫眼睛 -->
    <g fill="#32CD32">
      <ellipse cx="-8" cy="-8" rx="4" ry="6" />
      <ellipse cx="8" cy="-8" rx="4" ry="6" />
      <!-- 瞳孔 -->
      <ellipse cx="-8" cy="-8" rx="1.5" ry="4" fill="#000000" />
      <ellipse cx="8" cy="-8" rx="1.5" ry="4" fill="#000000" />
      <!-- 眼睛高光 -->
      <circle cx="-7" cy="-10" r="1" fill="#FFFFFF" />
      <circle cx="9" cy="-10" r="1" fill="#FFFFFF" />
    </g>
    
    <!-- 猫鼻子 -->
    <path d="M0,0 L-2,3 L2,3 Z" fill="#FF69B4" />
    
    <!-- 猫嘴巴 -->
    <g stroke="#FF4500" stroke-width="2" fill="none">
      <path d="M0,3 Q-4,6 -8,4" />
      <path d="M0,3 Q4,6 8,4" />
    </g>
    
    <!-- 猫胡须 -->
    <g stroke="#FF6347" stroke-width="1.5" fill="none" opacity="0.8">
      <line x1="-20" y1="-2" x2="-12" y2="0" />
      <line x1="-20" y1="2" x2="-12" y2="3" />
      <line x1="12" y1="0" x2="20" y2="-2" />
      <line x1="12" y1="3" x2="20" y2="2" />
    </g>
  </g>
  
  <!-- 高光效果 -->
  <ellipse cx="40" cy="35" rx="8" ry="6" fill="url(#orangeHighlight)" />
  
  <!-- 可爱装饰粒子 -->
  <g fill="#FFB347" opacity="0.6">
    <circle cx="25" cy="25" r="1.5">
      <animate attributeName="opacity" values="0.6;1;0.6" dur="2s" repeatCount="indefinite" />
    </circle>
    <circle cx="75" cy="30" r="1">
      <animate attributeName="opacity" values="0.6;1;0.6" dur="2.5s" repeatCount="indefinite" begin="0.5s" />
    </circle>
    <circle cx="30" cy="75" r="1.2">
      <animate attributeName="opacity" values="0.6;1;0.6" dur="1.8s" repeatCount="indefinite" begin="1s" />
    </circle>
    <circle cx="70" cy="70" r="0.8">
      <animate attributeName="opacity" values="0.6;1;0.6" dur="2.2s" repeatCount="indefinite" begin="0.3s" />
    </circle>
  </g>
  
  <!-- 爱心装饰 -->
  <g transform="translate(75,25)" fill="#FF69B4" opacity="0.7">
    <path d="M0,3 C0,1 2,1 2,3 C2,1 4,1 4,3 C4,5 2,7 0,8 C-2,7 -4,5 -4,3 C-4,1 -2,1 -2,3 C-2,1 0,1 0,3">
      <animate attributeName="opacity" values="0.7;1;0.7" dur="3s" repeatCount="indefinite" />
      <animateTransform attributeName="transform" type="scale" values="1;1.2;1" dur="3s" repeatCount="indefinite" />
    </path>
  </g>
</svg> 