<svg viewBox="0 0 100 100" xmlns="http://www.w3.org/2000/svg">
  <defs>
    <!-- 冰冻泡泡渐变 -->
    <radialGradient id="freezeBubbleGradient" cx="0.3" cy="0.3" r="0.8">
      <stop offset="0%" style="stop-color:#F0F8FF;stop-opacity:0.9" />
      <stop offset="70%" style="stop-color:#B0E0E6;stop-opacity:0.6" />
      <stop offset="100%" style="stop-color:#4169E1;stop-opacity:0.3" />
    </radialGradient>
    
    <!-- 高光渐变 -->
    <radialGradient id="freezeHighlight" cx="0.3" cy="0.3" r="0.4">
      <stop offset="0%" style="stop-color:#FFFFFF;stop-opacity:0.9" />
      <stop offset="100%" style="stop-color:#FFFFFF;stop-opacity:0" />
    </radialGradient>
    
    <!-- 冰晶光晕 -->
    <radialGradient id="iceGlow" cx="0.5" cy="0.5" r="0.7">
      <stop offset="70%" style="stop-color:#E6F3FF;stop-opacity:0" />
      <stop offset="100%" style="stop-color:#87CEEB;stop-opacity:0.4" />
    </radialGradient>
  </defs>
  
  <!-- 外层冰晶光晕 -->
  <circle cx="50" cy="50" r="48" fill="url(#iceGlow)" />
  
  <!-- 主冰冻泡泡 -->
  <circle cx="50" cy="50" r="38" fill="url(#freezeBubbleGradient)" stroke="#4169E1" stroke-width="1.5" stroke-opacity="0.4" />
  
  <!-- 雪花图案 -->
  <g transform="translate(50,50)" stroke="#87CEEB" stroke-width="2" fill="none" opacity="0.7">
    <!-- 主十字 -->
    <line x1="-15" y1="0" x2="15" y2="0" />
    <line x1="0" y1="-15" x2="0" y2="15" />
    
    <!-- 对角线 -->
    <line x1="-10" y1="-10" x2="10" y2="10" />
    <line x1="-10" y1="10" x2="10" y2="-10" />
    
    <!-- 雪花分支 -->
    <g stroke-width="1">
      <line x1="-12" y1="-3" x2="-8" y2="0" />
      <line x1="-12" y1="3" x2="-8" y2="0" />
      <line x1="12" y1="-3" x2="8" y2="0" />
      <line x1="12" y1="3" x2="8" y2="0" />
      
      <line x1="-3" y1="-12" x2="0" y2="-8" />
      <line x1="3" y1="-12" x2="0" y2="-8" />
      <line x1="-3" y1="12" x2="0" y2="8" />
      <line x1="3" y1="12" x2="0" y2="8" />
    </g>
  </g>
  
  <!-- 高光效果 -->
  <ellipse cx="40" cy="35" rx="10" ry="6" fill="url(#freezeHighlight)" />
  
  <!-- 冰晶点缀 -->
  <circle cx="38" cy="32" r="2" fill="#FFFFFF" opacity="0.8" />
  <circle cx="45" cy="38" r="1" fill="#FFFFFF" opacity="0.6" />
  
  <!-- 冰冻粒子效果 -->
  <g fill="#B0E0E6" opacity="0.5">
    <circle cx="25" cy="30" r="1.5" />
    <circle cx="75" cy="35" r="1" />
    <circle cx="30" cy="70" r="1.2" />
    <circle cx="70" cy="70" r="0.8" />
  </g>
</svg> 