<svg viewBox="0 0 100 100" xmlns="http://www.w3.org/2000/svg">
  <defs>
    <!-- 药水瓶渐变 -->
    <linearGradient id="bottleGradient" x1="0%" y1="0%" x2="100%" y2="100%">
      <stop offset="0%" style="stop-color:#F8F8FF;stop-opacity:0.9" />
      <stop offset="50%" style="stop-color:#E6E6FA;stop-opacity:0.7" />
      <stop offset="100%" style="stop-color:#DDA0DD;stop-opacity:0.5" />
    </linearGradient>
    
    <!-- 药水液体渐变 -->
    <linearGradient id="potionGradient" x1="0%" y1="0%" x2="100%" y2="100%">
      <stop offset="0%" style="stop-color:#DA70D6;stop-opacity:0.8" />
      <stop offset="50%" style="stop-color:#9370DB;stop-opacity:0.6" />
      <stop offset="100%" style="stop-color:#8A2BE2;stop-opacity:0.4" />
    </linearGradient>
    
    <!-- 神秘光效 -->
    <radialGradient id="mysticalGlow" cx="0.5" cy="0.5" r="0.8">
      <stop offset="0%" style="stop-color:#DDA0DD;stop-opacity:0.6" />
      <stop offset="70%" style="stop-color:#9370DB;stop-opacity:0.3" />
      <stop offset="100%" style="stop-color:#9370DB;stop-opacity:0" />
    </radialGradient>
    
    <!-- 气泡效果 -->
    <radialGradient id="bubbleEffect" cx="0.3" cy="0.3" r="0.7">
      <stop offset="0%" style="stop-color:#FFFFFF;stop-opacity:0.7" />
      <stop offset="100%" style="stop-color:#FFFFFF;stop-opacity:0" />
    </radialGradient>
  </defs>
  
  <!-- 外层神秘光晕 -->
  <circle cx="50" cy="50" r="48" fill="url(#mysticalGlow)" />
  
  <!-- 药水瓶身 -->
  <path d="M35 25 L35 45 Q35 50 40 50 L60 50 Q65 50 65 45 L65 25 Q65 20 60 20 L40 20 Q35 20 35 25 Z" 
        fill="url(#bottleGradient)" stroke="#DDA0DD" stroke-width="1" opacity="0.8" />
  
  <!-- 药水瓶颈部 -->
  <rect x="45" y="15" width="10" height="10" rx="2" ry="2" 
        fill="url(#bottleGradient)" stroke="#DDA0DD" stroke-width="1" opacity="0.8" />
  
  <!-- 瓶盖 -->
  <rect x="43" y="12" width="14" height="6" rx="3" ry="3" 
        fill="#8A2BE2" opacity="0.7" />
  
  <!-- 药水液体 -->
  <path d="M37 47 Q37 48 38 48 L62 48 Q63 48 63 47 L63 30 Q63 28 61 28 L39 28 Q37 28 37 30 Z" 
        fill="url(#potionGradient)" />
  
  <!-- 液体表面波动 -->
  <path d="M37 30 Q45 28 50 30 T63 30" stroke="#DA70D6" stroke-width="1" fill="none" opacity="0.6" />
  
  <!-- 药水中的气泡 -->
  <g fill="url(#bubbleEffect)">
    <circle cx="42" cy="35" r="2" opacity="0.6" />
    <circle cx="55" cy="40" r="1.5" opacity="0.5" />
    <circle cx="48" cy="42" r="1" opacity="0.7" />
    <circle cx="58" cy="33" r="1.2" opacity="0.4" />
  </g>
  
  <!-- 瓶身高光 -->
  <ellipse cx="42" cy="30" rx="3" ry="8" fill="#FFFFFF" opacity="0.4" />
  
  <!-- 神秘符号装饰 -->
  <g transform="translate(50,38)" stroke="#9370DB" stroke-width="1.5" fill="none" opacity="0.5">
    <circle r="8" />
    <path d="M-4,-4 L4,4 M-4,4 L4,-4" />
    <circle r="2" fill="#9370DB" opacity="0.3" />
  </g>
  
  <!-- 魔法粒子效果 -->
  <g fill="#DDA0DD" opacity="0.6">
    <circle cx="25" cy="25" r="1">
      <animate attributeName="opacity" values="0.6;0;0.6" dur="2s" repeatCount="indefinite" />
    </circle>
    <circle cx="75" cy="30" r="0.8">
      <animate attributeName="opacity" values="0;0.6;0" dur="2.5s" repeatCount="indefinite" />
    </circle>
    <circle cx="30" cy="75" r="1.2">
      <animate attributeName="opacity" values="0.6;0;0.6" dur="1.8s" repeatCount="indefinite" />
    </circle>
    <circle cx="70" cy="70" r="0.6">
      <animate attributeName="opacity" values="0;0.6;0" dur="2.2s" repeatCount="indefinite" />
    </circle>
  </g>
  
  <!-- 瓶口光效 -->
  <ellipse cx="50" cy="15" rx="8" ry="2" fill="#DDA0DD" opacity="0.3" />
</svg> 