<svg viewBox="0 0 100 100" xmlns="http://www.w3.org/2000/svg">
  <defs>
    <!-- 按钮背景渐变 -->
    <radialGradient id="buttonBg" cx="0.3" cy="0.3" r="0.8">
      <stop offset="0%" style="stop-color:#FFE4B5;stop-opacity:0.9" />
      <stop offset="70%" style="stop-color:#FFA500;stop-opacity:0.8" />
      <stop offset="100%" style="stop-color:#FF8C00;stop-opacity:0.6" />
    </radialGradient>
    
    <!-- 火焰渐变 -->
    <linearGradient id="flameGradient" x1="0%" y1="100%" x2="0%" y2="0%">
      <stop offset="0%" style="stop-color:#FF4500;stop-opacity:0.8" />
      <stop offset="50%" style="stop-color:#FFA500;stop-opacity:0.6" />
      <stop offset="100%" style="stop-color:#FFFF00;stop-opacity:0.4" />
    </linearGradient>
    
    <!-- 光晕效果 -->
    <radialGradient id="glowEffect" cx="0.5" cy="0.5" r="0.7">
      <stop offset="60%" style="stop-color:#FFA500;stop-opacity:0" />
      <stop offset="100%" style="stop-color:#FFA500;stop-opacity:0.4" />
    </radialGradient>
    
    <!-- 风速线条 -->
    <linearGradient id="speedLines" x1="0%" y1="0%" x2="100%" y2="0%">
      <stop offset="0%" style="stop-color:#FFFFFF;stop-opacity:0" />
      <stop offset="50%" style="stop-color:#FFFFFF;stop-opacity:0.6" />
      <stop offset="100%" style="stop-color:#FFFFFF;stop-opacity:0" />
    </linearGradient>
  </defs>
  
  <!-- 外层光晕 -->
  <circle cx="50" cy="50" r="48" fill="url(#glowEffect)" />
  
  <!-- 按钮主体 -->
  <circle cx="50" cy="50" r="40" fill="url(#buttonBg)" stroke="#FF8C00" stroke-width="2" />
  
  <!-- 火焰图标主体 -->
  <g transform="translate(50,50)">
    <!-- 主火焰 -->
    <path d="M0,-20 Q-8,-15 -6,-8 Q-10,-2 -4,2 Q-8,8 0,12 Q8,8 4,2 Q10,-2 6,-8 Q8,-15 0,-20 Z" 
          fill="url(#flameGradient)" />
    
    <!-- 内层火焰 -->
    <path d="M0,-15 Q-5,-12 -3,-6 Q-6,-2 -2,0 Q-4,4 0,6 Q4,4 2,0 Q6,-2 3,-6 Q5,-12 0,-15 Z" 
          fill="#FFFF00" opacity="0.7" />
    
    <!-- 火焰核心 -->
    <ellipse cx="0" cy="-5" rx="2" ry="8" fill="#FFFFFF" opacity="0.5" />
  </g>
  
  <!-- 速度线条效果 -->
  <g stroke="url(#speedLines)" stroke-width="2" fill="none" opacity="0.6">
    <path d="M15,35 L35,35">
      <animate attributeName="opacity" values="0;0.8;0" dur="1s" repeatCount="indefinite" begin="0s" />
    </path>
    <path d="M15,45 L40,45">
      <animate attributeName="opacity" values="0;0.8;0" dur="1s" repeatCount="indefinite" begin="0.2s" />
    </path>
    <path d="M15,55 L35,55">
      <animate attributeName="opacity" values="0;0.8;0" dur="1s" repeatCount="indefinite" begin="0.4s" />
    </path>
    <path d="M15,65 L40,65">
      <animate attributeName="opacity" values="0;0.8;0" dur="1s" repeatCount="indefinite" begin="0.6s" />
    </path>
  </g>
  
  <!-- 按钮高光 -->
  <ellipse cx="40" cy="35" rx="8" ry="6" fill="#FFFFFF" opacity="0.3" />
  
  <!-- 按钮边缘装饰 -->
  <circle cx="50" cy="50" r="42" fill="none" stroke="#FFD700" stroke-width="1" opacity="0.5" />
  
  <!-- 闪烁效果 -->
  <g fill="#FFFF00" opacity="0.8">
    <circle cx="30" cy="30" r="1">
      <animate attributeName="opacity" values="0;1;0" dur="1.5s" repeatCount="indefinite" />
    </circle>
    <circle cx="70" cy="35" r="0.8">
      <animate attributeName="opacity" values="0;1;0" dur="2s" repeatCount="indefinite" begin="0.5s" />
    </circle>
    <circle cx="35" cy="75" r="1.2">
      <animate attributeName="opacity" values="0;1;0" dur="1.8s" repeatCount="indefinite" begin="1s" />
    </circle>
    <circle cx="75" cy="70" r="0.6">
      <animate attributeName="opacity" values="0;1;0" dur="2.2s" repeatCount="indefinite" begin="0.3s" />
    </circle>
  </g>
</svg> 