<svg viewBox="0 0 100 100" xmlns="http://www.w3.org/2000/svg">
  <defs>
    <!-- 按钮背景渐变 -->
    <radialGradient id="feedButtonBg" cx="0.3" cy="0.3" r="0.8">
      <stop offset="0%" style="stop-color:#F0FFF0;stop-opacity:0.9" />
      <stop offset="70%" style="stop-color:#98FB98;stop-opacity:0.8" />
      <stop offset="100%" style="stop-color:#32CD32;stop-opacity:0.6" />
    </radialGradient>
    
    <!-- 糖果渐变 -->
    <radialGradient id="candyGradient" cx="0.3" cy="0.3" r="0.7">
      <stop offset="0%" style="stop-color:#FFFFE0;stop-opacity:0.9" />
      <stop offset="50%" style="stop-color:#FFB6C1;stop-opacity:0.7" />
      <stop offset="100%" style="stop-color:#FF69B4;stop-opacity:0.5" />
    </radialGradient>
    
    <!-- 光晕效果 -->
    <radialGradient id="feedGlow" cx="0.5" cy="0.5" r="0.7">
      <stop offset="60%" style="stop-color:#98FB98;stop-opacity:0" />
      <stop offset="100%" style="stop-color:#98FB98;stop-opacity:0.4" />
    </radialGradient>
    
    <!-- 投掷轨迹 -->
    <linearGradient id="trajectoryGradient" x1="0%" y1="0%" x2="100%" y2="100%">
      <stop offset="0%" style="stop-color:#FFFFFF;stop-opacity:0.8" />
      <stop offset="100%" style="stop-color:#FFFFFF;stop-opacity:0" />
    </linearGradient>
  </defs>
  
  <!-- 外层光晕 -->
  <circle cx="50" cy="50" r="48" fill="url(#feedGlow)" />
  
  <!-- 按钮主体 -->
  <circle cx="50" cy="50" r="40" fill="url(#feedButtonBg)" stroke="#32CD32" stroke-width="2" />
  
  <!-- 糖果主体 -->
  <g transform="translate(50,55)">
    <!-- 主糖果球 -->
    <circle r="12" fill="url(#candyGradient)" stroke="#FF69B4" stroke-width="1" />
    
    <!-- 糖果包装纸效果 -->
    <g stroke="#FFB6C1" stroke-width="1.5" fill="none" opacity="0.6">
      <path d="M-12,0 Q-8,-4 0,-4 Q8,-4 12,0" />
      <path d="M-12,0 Q-8,4 0,4 Q8,4 12,0" />
    </g>
    
    <!-- 糖果高光 -->
    <ellipse cx="-4" cy="-4" rx="4" ry="3" fill="#FFFFFF" opacity="0.6" />
    
    <!-- 糖果装饰点 -->
    <g fill="#FFFFFF" opacity="0.4">
      <circle cx="3" cy="2" r="1" />
      <circle cx="-2" cy="4" r="0.8" />
      <circle cx="5" cy="-3" r="0.6" />
    </g>
  </g>
  
  <!-- 投掷手势 -->
  <g transform="translate(50,35)" stroke="#32CD32" stroke-width="2" fill="none" opacity="0.7">
    <!-- 手臂轮廓 -->
    <path d="M-8,0 Q-5,-5 0,-3 Q5,-1 8,2" stroke-linecap="round" />
    
    <!-- 投掷方向箭头 -->
    <path d="M8,2 L12,0 M8,2 L10,6" stroke-linecap="round" />
  </g>
  
  <!-- 投掷轨迹线 -->
  <g stroke="url(#trajectoryGradient)" stroke-width="1.5" fill="none" opacity="0.5">
    <path d="M35,40 Q60,25 80,35">
      <animate attributeName="opacity" values="0;0.7;0" dur="1.5s" repeatCount="indefinite" />
    </path>
    <path d="M35,45 Q65,30 85,40">
      <animate attributeName="opacity" values="0;0.7;0" dur="1.5s" repeatCount="indefinite" begin="0.3s" />
    </path>
    <path d="M35,50 Q70,35 90,45">
      <animate attributeName="opacity" values="0;0.7;0" dur="1.5s" repeatCount="indefinite" begin="0.6s" />
    </path>
  </g>
  
  <!-- 小糖果粒子 -->
  <g fill="url(#candyGradient)" opacity="0.6">
    <circle cx="75" cy="30" r="2">
      <animate attributeName="cy" values="30;20;30" dur="2s" repeatCount="indefinite" />
      <animate attributeName="opacity" values="0.6;1;0.6" dur="2s" repeatCount="indefinite" />
    </circle>
    <circle cx="80" cy="35" r="1.5">
      <animate attributeName="cy" values="35;25;35" dur="2.2s" repeatCount="indefinite" begin="0.5s" />
      <animate attributeName="opacity" values="0.6;1;0.6" dur="2.2s" repeatCount="indefinite" begin="0.5s" />
    </circle>
    <circle cx="85" cy="40" r="1">
      <animate attributeName="cy" values="40;30;40" dur="1.8s" repeatCount="indefinite" begin="1s" />
      <animate attributeName="opacity" values="0.6;1;0.6" dur="1.8s" repeatCount="indefinite" begin="1s" />
    </circle>
  </g>
  
  <!-- 按钮高光 -->
  <ellipse cx="40" cy="35" rx="8" ry="6" fill="#FFFFFF" opacity="0.3" />
  
  <!-- 按钮边缘装饰 -->
  <circle cx="50" cy="50" r="42" fill="none" stroke="#90EE90" stroke-width="1" opacity="0.5" />
  
  <!-- 闪烁装饰 -->
  <g fill="#98FB98" opacity="0.8">
    <circle cx="25" cy="25" r="1">
      <animate attributeName="opacity" values="0;1;0" dur="2s" repeatCount="indefinite" />
    </circle>
    <circle cx="75" cy="75" r="0.8">
      <animate attributeName="opacity" values="0;1;0" dur="2.5s" repeatCount="indefinite" begin="0.7s" />
    </circle>
    <circle cx="25" cy="75" r="1.2">
      <animate attributeName="opacity" values="0;1;0" dur="1.8s" repeatCount="indefinite" begin="1.2s" />
    </circle>
  </g>
</svg> 