<svg viewBox="0 0 100 100" xmlns="http://www.w3.org/2000/svg">
  <defs>
    <!-- 购物袋主体渐变 -->
    <linearGradient id="bagGradient" x1="0%" y1="0%" x2="100%" y2="100%">
      <stop offset="0%" style="stop-color:#8A2BE2;stop-opacity:0.9" />
      <stop offset="50%" style="stop-color:#9370DB;stop-opacity:0.8" />
      <stop offset="100%" style="stop-color:#6A0DAD;stop-opacity:0.7" />
    </linearGradient>
    
    <!-- 钻石渐变 -->
    <radialGradient id="diamondGradient" cx="0.3" cy="0.3" r="0.8">
      <stop offset="0%" style="stop-color:#FFFFFF;stop-opacity:1" />
      <stop offset="40%" style="stop-color:#87CEEB;stop-opacity:0.9" />
      <stop offset="80%" style="stop-color:#4169E1;stop-opacity:0.8" />
      <stop offset="100%" style="stop-color:#0000CD;stop-opacity:0.7" />
    </radialGradient>
    
    <!-- 手柄渐变 -->
    <linearGradient id="handleGradient" x1="0%" y1="0%" x2="100%" y2="100%">
      <stop offset="0%" style="stop-color:#D2691E;stop-opacity:0.9" />
      <stop offset="50%" style="stop-color:#CD853F;stop-opacity:0.8" />
      <stop offset="100%" style="stop-color:#A0522D;stop-opacity:0.7" />
    </linearGradient>
    
    <!-- 光晕效果 -->
    <radialGradient id="shopGlow" cx="0.5" cy="0.5" r="0.8">
      <stop offset="60%" style="stop-color:#9370DB;stop-opacity:0" />
      <stop offset="100%" style="stop-color:#9370DB;stop-opacity:0.5" />
    </radialGradient>
    
    <!-- 高光渐变 -->
    <radialGradient id="shopHighlight" cx="0.3" cy="0.3" r="0.5">
      <stop offset="0%" style="stop-color:#FFFFFF;stop-opacity:0.8" />
      <stop offset="100%" style="stop-color:#FFFFFF;stop-opacity:0" />
    </radialGradient>
  </defs>
  
  <!-- 外层光晕 -->
  <circle cx="50" cy="50" r="48" fill="url(#shopGlow)" />
  
  <!-- 购物袋主体 -->
  <path d="M30,35 L70,35 L75,80 Q75,85 70,85 L30,85 Q25,85 25,80 Z" 
        fill="url(#bagGradient)" stroke="#6A0DAD" stroke-width="1.5" />
  
  <!-- 购物袋手柄 -->
  <g stroke="url(#handleGradient)" stroke-width="4" fill="none">
    <path d="M35,35 Q35,25 40,25 Q45,25 45,35" />
    <path d="M55,35 Q55,25 60,25 Q65,25 65,35" />
  </g>
  
  <!-- 购物袋折痕 -->
  <g stroke="#8A2BE2" stroke-width="1" fill="none" opacity="0.6">
    <line x1="30" y1="40" x2="70" y2="40" />
    <line x1="28" y1="50" x2="72" y2="50" />
    <line x1="27" y1="60" x2="73" y2="60" />
    <line x1="26" y1="70" x2="74" y2="70" />
  </g>
  
  <!-- 钻石装饰 -->
  <g transform="translate(50,55)">
    <!-- 主钻石 -->
    <path d="M0,-8 L6,-3 L6,3 L0,8 L-6,3 L-6,-3 Z" 
          fill="url(#diamondGradient)" stroke="#4169E1" stroke-width="1" />
    
    <!-- 钻石切面 -->
    <g stroke="#87CEEB" stroke-width="0.5" fill="none" opacity="0.7">
      <line x1="0" y1="-8" x2="0" y2="8" />
      <line x1="-6" y1="-3" x2="6" y2="3" />
      <line x1="6" y1="-3" x2="-6" y2="3" />
    </g>
    
    <!-- 钻石闪光 -->
    <g stroke="#FFFFFF" stroke-width="1" fill="none" opacity="0.8">
      <line x1="-2" y1="-5" x2="2" y2="-3" />
      <line x1="-3" y1="0" x2="3" y2="2" />
    </g>
  </g>
  
  <!-- 购物袋高光 -->
  <ellipse cx="45" cy="45" rx="8" ry="12" fill="url(#shopHighlight)" />
  
  <!-- 金币装饰 -->
  <g fill="#FFD700" opacity="0.8">
    <circle cx="40" cy="65" r="3">
      <animate attributeName="opacity" values="0.8;1;0.8" dur="2s" repeatCount="indefinite" />
    </circle>
    <circle cx="60" cy="70" r="2.5">
      <animate attributeName="opacity" values="0.8;1;0.8" dur="2.5s" repeatCount="indefinite" begin="0.5s" />
    </circle>
    <!-- 金币符号 -->
    <text x="40" y="67" text-anchor="middle" font-family="Comic Sans MS" font-size="4" 
          font-weight="bold" fill="#FF8C00">$</text>
    <text x="60" y="72" text-anchor="middle" font-family="Comic Sans MS" font-size="3" 
          font-weight="bold" fill="#FF8C00">¥</text>
  </g>
  
  <!-- 购买标签 -->
  <g transform="translate(75,25)">
    <rect x="-8" y="-4" width="16" height="8" rx="2" ry="2" 
          fill="#FF4500" stroke="#FF6347" stroke-width="1" />
    <text x="0" y="1" text-anchor="middle" font-family="Comic Sans MS" font-size="6" 
          font-weight="bold" fill="#FFFFFF">SHOP</text>
  </g>
  
  <!-- 魔法粒子装饰 -->
  <g fill="#9370DB" opacity="0.6">
    <circle cx="25" cy="30" r="1">
      <animate attributeName="opacity" values="0.6;1;0.6" dur="2s" repeatCount="indefinite" />
    </circle>
    <circle cx="75" cy="40" r="0.8">
      <animate attributeName="opacity" values="0.6;1;0.6" dur="2.5s" repeatCount="indefinite" begin="0.3s" />
    </circle>
    <circle cx="20" cy="70" r="1.2">
      <animate attributeName="opacity" values="0.6;1;0.6" dur="1.8s" repeatCount="indefinite" begin="0.8s" />
    </circle>
    <circle cx="80" cy="75" r="0.6">
      <animate attributeName="opacity" values="0.6;1;0.6" dur="2.2s" repeatCount="indefinite" begin="1.2s" />
    </circle>
  </g>
  
  <!-- 闪烁星星装饰 -->
  <g fill="#FFD700" opacity="0.7">
    <g transform="translate(20,45)">
      <path d="M0,-3 L1,-1 L3,0 L1,1 L0,3 L-1,1 L-3,0 L-1,-1 Z">
        <animate attributeName="opacity" values="0.7;1;0.7" dur="2s" repeatCount="indefinite" />
        <animateTransform attributeName="transform" type="rotate" values="0;360" dur="6s" repeatCount="indefinite" />
      </path>
    </g>
    <g transform="translate(80,60)">
      <path d="M0,-2 L0.5,-0.5 L2,0 L0.5,0.5 L0,2 L-0.5,0.5 L-2,0 L-0.5,-0.5 Z">
        <animate attributeName="opacity" values="0.7;1;0.7" dur="2.5s" repeatCount="indefinite" begin="1s" />
        <animateTransform attributeName="transform" type="rotate" values="360;0" dur="4s" repeatCount="indefinite" />
      </path>
    </g>
  </g>
</svg> 