<svg viewBox="0 0 100 100" xmlns="http://www.w3.org/2000/svg">
  <defs>
    <!-- 红队泡泡渐变 -->
    <radialGradient id="redTeamGradient" cx="0.3" cy="0.3" r="0.8">
      <stop offset="0%" style="stop-color:#FF6B6B;stop-opacity:1" />
      <stop offset="50%" style="stop-color:#FF4757;stop-opacity:0.9" />
      <stop offset="100%" style="stop-color:#FF3742;stop-opacity:0.8" />
    </radialGradient>
    
    <!-- 蓝队泡泡渐变 -->
    <radialGradient id="blueTeamGradient" cx="0.3" cy="0.3" r="0.8">
      <stop offset="0%" style="stop-color:#4ECDC4;stop-opacity:1" />
      <stop offset="50%" style="stop-color:#26D0CE;stop-opacity:0.9" />
      <stop offset="100%" style="stop-color:#1DD1A1;stop-opacity:0.8" />
    </radialGradient>
    
    <!-- 红队队长渐变 -->
    <radialGradient id="redLeaderGradient" cx="0.3" cy="0.3" r="0.8">
      <stop offset="0%" style="stop-color:#FF8E53;stop-opacity:1" />
      <stop offset="50%" style="stop-color:#FF6B35;stop-opacity:0.9" />
      <stop offset="100%" style="stop-color:#FF4757;stop-opacity:0.8" />
    </radialGradient>
    
    <!-- 蓝队队长渐变 -->
    <radialGradient id="blueLeaderGradient" cx="0.3" cy="0.3" r="0.8">
      <stop offset="0%" style="stop-color:#00D2D3;stop-opacity:1" />
      <stop offset="50%" style="stop-color:#0FB9B1;stop-opacity:0.9" />
      <stop offset="100%" style="stop-color:#006BA6;stop-opacity:0.8" />
    </radialGradient>
    
    <!-- 团队光晕 -->
    <radialGradient id="teamGlow" cx="0.5" cy="0.5" r="0.8">
      <stop offset="60%" style="stop-color:#7B68EE;stop-opacity:0" />
      <stop offset="100%" style="stop-color:#7B68EE;stop-opacity:0.5" />
    </radialGradient>
    
    <!-- 高光渐变 -->
    <radialGradient id="teamHighlight" cx="0.3" cy="0.3" r="0.5">
      <stop offset="0%" style="stop-color:#FFFFFF;stop-opacity:0.9" />
      <stop offset="100%" style="stop-color:#FFFFFF;stop-opacity:0" />
    </radialGradient>
    
    <!-- 团队连接线 -->
    <linearGradient id="teamConnection" x1="0%" y1="0%" x2="100%" y2="0%">
      <stop offset="0%" style="stop-color:#FF6B6B;stop-opacity:0.8" />
      <stop offset="50%" style="stop-color:#FFFFFF;stop-opacity:0.6" />
      <stop offset="100%" style="stop-color:#4ECDC4;stop-opacity:0.8" />
    </linearGradient>
  </defs>
  
  <!-- 外层团队光晕 -->
  <circle cx="50" cy="50" r="48" fill="url(#teamGlow)" />
  
  <!-- 分界线 -->
  <line x1="50" y1="10" x2="50" y2="90" stroke="#FFFFFF" stroke-width="2" opacity="0.4" stroke-dasharray="5,5">
    <animate attributeName="stroke-dashoffset" values="0;10" dur="2s" repeatCount="indefinite" />
  </line>
  
  <!-- 红队区域背景 -->
  <rect x="5" y="5" width="40" height="90" rx="5" ry="5" fill="#FF6B6B" opacity="0.1" />
  
  <!-- 蓝队区域背景 -->
  <rect x="55" y="5" width="40" height="90" rx="5" ry="5" fill="#4ECDC4" opacity="0.1" />
  
  <!-- 红队队长（左上） -->
  <circle cx="25" cy="25" r="15" fill="url(#redLeaderGradient)" stroke="#FF4757" stroke-width="2" />
  <g transform="translate(25,25)" fill="#FFFFFF" opacity="0.9">
    <!-- 队长皇冠 -->
    <path d="M-8,-15 L-5,-12 L0,-14 L5,-12 L8,-15 L6,-10 L-6,-10 Z" fill="#FFD700" />
    <!-- 眼睛 -->
    <circle cx="-5" cy="-3" r="2" />
    <circle cx="5" cy="-3" r="2" />
    <circle cx="-5" cy="-3" r="1" fill="#FF4757" />
    <circle cx="5" cy="-3" r="1" fill="#FF4757" />
    <!-- 嘴巴 -->
    <path d="M-6,6 Q0,10 6,6" stroke="#FFFFFF" stroke-width="2" fill="none" />
  </g>
  
  <!-- 红队队员1（左下） -->
  <circle cx="25" cy="65" r="12" fill="url(#redTeamGradient)" stroke="#FF3742" stroke-width="1.5" />
  <g transform="translate(25,65)" fill="#FFFFFF" opacity="0.8">
    <circle cx="-4" cy="-3" r="1.5" />
    <circle cx="4" cy="-3" r="1.5" />
    <circle cx="-4" cy="-3" r="0.7" fill="#FF3742" />
    <circle cx="4" cy="-3" r="0.7" fill="#FF3742" />
    <path d="M-4,5 Q0,7 4,5" stroke="#FFFFFF" stroke-width="1" fill="none" />
  </g>
  
  <!-- 红队队员2（左中） -->
  <circle cx="15" cy="45" r="10" fill="url(#redTeamGradient)" stroke="#FF3742" stroke-width="1" />
  <g transform="translate(15,45)" fill="#FFFFFF" opacity="0.8">
    <circle cx="-3" cy="-2" r="1.2" />
    <circle cx="3" cy="-2" r="1.2" />
    <circle cx="-3" cy="-2" r="0.6" fill="#FF3742" />
    <circle cx="3" cy="-2" r="0.6" fill="#FF3742" />
    <path d="M-3,4 Q0,6 3,4" stroke="#FFFFFF" stroke-width="0.8" fill="none" />
  </g>
  
  <!-- 蓝队队长（右上） -->
  <circle cx="75" cy="25" r="15" fill="url(#blueLeaderGradient)" stroke="#1DD1A1" stroke-width="2" />
  <g transform="translate(75,25)" fill="#FFFFFF" opacity="0.9">
    <!-- 队长皇冠 -->
    <path d="M-8,-15 L-5,-12 L0,-14 L5,-12 L8,-15 L6,-10 L-6,-10 Z" fill="#FFD700" />
    <!-- 眼睛 -->
    <circle cx="-5" cy="-3" r="2" />
    <circle cx="5" cy="-3" r="2" />
    <circle cx="-5" cy="-3" r="1" fill="#1DD1A1" />
    <circle cx="5" cy="-3" r="1" fill="#1DD1A1" />
    <!-- 嘴巴 -->
    <path d="M-6,6 Q0,10 6,6" stroke="#FFFFFF" stroke-width="2" fill="none" />
  </g>
  
  <!-- 蓝队队员1（右下） -->
  <circle cx="75" cy="65" r="12" fill="url(#blueTeamGradient)" stroke="#1DD1A1" stroke-width="1.5" />
  <g transform="translate(75,65)" fill="#FFFFFF" opacity="0.8">
    <circle cx="-4" cy="-3" r="1.5" />
    <circle cx="4" cy="-3" r="1.5" />
    <circle cx="-4" cy="-3" r="0.7" fill="#1DD1A1" />
    <circle cx="4" cy="-3" r="0.7" fill="#1DD1A1" />
    <path d="M-4,5 Q0,7 4,5" stroke="#FFFFFF" stroke-width="1" fill="none" />
  </g>
  
  <!-- 蓝队队员2（右中） -->
  <circle cx="85" cy="45" r="10" fill="url(#blueTeamGradient)" stroke="#1DD1A1" stroke-width="1" />
  <g transform="translate(85,45)" fill="#FFFFFF" opacity="0.8">
    <circle cx="-3" cy="-2" r="1.2" />
    <circle cx="3" cy="-2" r="1.2" />
    <circle cx="-3" cy="-2" r="0.6" fill="#1DD1A1" />
    <circle cx="3" cy="-2" r="0.6" fill="#1DD1A1" />
    <path d="M-3,4 Q0,6 3,4" stroke="#FFFFFF" stroke-width="0.8" fill="none" />
  </g>
  
  <!-- 红队内部连接线 -->
  <g stroke="#FF6B6B" stroke-width="2" fill="none" opacity="0.5">
    <line x1="25" y1="25" x2="25" y2="65" />
    <line x1="25" y1="25" x2="15" y2="45" />
    <line x1="15" y1="45" x2="25" y2="65" />
  </g>
  
  <!-- 蓝队内部连接线 -->
  <g stroke="#4ECDC4" stroke-width="2" fill="none" opacity="0.5">
    <line x1="75" y1="25" x2="75" y2="65" />
    <line x1="75" y1="25" x2="85" y2="45" />
    <line x1="85" y1="45" x2="75" y2="65" />
  </g>
  
  <!-- 对战连接线 -->
  <line x1="40" y1="25" x2="60" y2="25" stroke="url(#teamConnection)" stroke-width="3" opacity="0.7">
    <animate attributeName="opacity" values="0.7;1;0.7" dur="2s" repeatCount="indefinite" />
  </line>
  <line x1="40" y1="65" x2="60" y2="65" stroke="url(#teamConnection)" stroke-width="3" opacity="0.7">
    <animate attributeName="opacity" values="0.7;1;0.7" dur="2s" repeatCount="indefinite" begin="1s" />
  </line>
  
  <!-- 团队标识 -->
  <g transform="translate(50,10)">
    <rect x="-20" y="-6" width="40" height="12" rx="6" ry="6" 
          fill="#7B68EE" stroke="#6A5ACD" stroke-width="1" opacity="0.9" />
    <text x="0" y="2" text-anchor="middle" font-family="Comic Sans MS" font-size="7" 
          font-weight="bold" fill="#FFFFFF">TEAM</text>
  </g>
  
  <!-- 红队标识 -->
  <g transform="translate(25,85)">
    <rect x="-12" y="-5" width="24" height="10" rx="5" ry="5" 
          fill="#FF6B6B" stroke="#FF4757" stroke-width="1" opacity="0.8" />
    <text x="0" y="1" text-anchor="middle" font-family="Comic Sans MS" font-size="6" 
          font-weight="bold" fill="#FFFFFF">RED</text>
  </g>
  
  <!-- 蓝队标识 -->
  <g transform="translate(75,85)">
    <rect x="-12" y="-5" width="24" height="10" rx="5" ry="5" 
          fill="#4ECDC4" stroke="#1DD1A1" stroke-width="1" opacity="0.8" />
    <text x="0" y="1" text-anchor="middle" font-family="Comic Sans MS" font-size="6" 
          font-weight="bold" fill="#FFFFFF">BLUE</text>
  </g>
  
  <!-- 高光效果 -->
  <ellipse cx="20" cy="20" rx="4" ry="3" fill="url(#teamHighlight)" />
  <ellipse cx="80" cy="20" rx="4" ry="3" fill="url(#teamHighlight)" />
  
  <!-- 团队合作特效 -->
  <g opacity="0.6">
    <!-- 红队光环 -->
    <circle cx="25" cy="45" r="25" fill="none" stroke="#FF6B6B" stroke-width="2">
      <animate attributeName="r" values="25;30;25" dur="3s" repeatCount="indefinite" />
      <animate attributeName="opacity" values="0.6;0.3;0.6" dur="3s" repeatCount="indefinite" />
    </circle>
    <!-- 蓝队光环 -->
    <circle cx="75" cy="45" r="25" fill="none" stroke="#4ECDC4" stroke-width="2">
      <animate attributeName="r" values="25;30;25" dur="3s" repeatCount="indefinite" begin="1.5s" />
      <animate attributeName="opacity" values="0.6;0.3;0.6" dur="3s" repeatCount="indefinite" begin="1.5s" />
    </circle>
  </g>
  
  <!-- 团队精神粒子 -->
  <g fill="#FFFFFF" opacity="0.8">
    <circle cx="35" cy="20" r="1">
      <animate attributeName="opacity" values="0.8;0.3;0.8" dur="2s" repeatCount="indefinite" />
      <animate attributeName="r" values="1;2;1" dur="2s" repeatCount="indefinite" />
    </circle>
    <circle cx="65" cy="20" r="0.8">
      <animate attributeName="opacity" values="0.8;0.3;0.8" dur="2.5s" repeatCount="indefinite" begin="0.5s" />
      <animate attributeName="r" values="0.8;1.5;0.8" dur="2.5s" repeatCount="indefinite" begin="0.5s" />
    </circle>
    <circle cx="35" cy="70" r="1.2">
      <animate attributeName="opacity" values="0.8;0.3;0.8" dur="1.8s" repeatCount="indefinite" begin="1s" />
      <animate attributeName="r" values="1.2;2.2;1.2" dur="1.8s" repeatCount="indefinite" begin="1s" />
    </circle>
    <circle cx="65" cy="70" r="0.9">
      <animate attributeName="opacity" values="0.8;0.3;0.8" dur="2.2s" repeatCount="indefinite" begin="0.3s" />
      <animate attributeName="r" values="0.9;1.8;0.9" dur="2.2s" repeatCount="indefinite" begin="0.3s" />
    </circle>
  </g>
  
  <!-- 胜利星星装饰 -->
  <g fill="#FFD700" opacity="0.7">
    <g transform="translate(10,10)">
      <path d="M0,-2.5 L0.7,-0.7 L2.5,0 L0.7,0.7 L0,2.5 L-0.7,0.7 L-2.5,0 L-0.7,-0.7 Z">
        <animate attributeName="opacity" values="0.7;1;0.7" dur="2s" repeatCount="indefinite" />
        <animateTransform attributeName="transform" type="rotate" values="0;360" dur="8s" repeatCount="indefinite" />
      </path>
    </g>
    <g transform="translate(90,10)">
      <path d="M0,-2.5 L0.7,-0.7 L2.5,0 L0.7,0.7 L0,2.5 L-0.7,0.7 L-2.5,0 L-0.7,-0.7 Z">
        <animate attributeName="opacity" values="0.7;1;0.7" dur="2.5s" repeatCount="indefinite" begin="1s" />
        <animateTransform attributeName="transform" type="rotate" values="360;0" dur="6s" repeatCount="indefinite" />
      </path>
    </g>
    <g transform="translate(10,90)">
      <path d="M0,-2 L0.5,-0.5 L2,0 L0.5,0.5 L0,2 L-0.5,0.5 L-2,0 L-0.5,-0.5 Z">
        <animate attributeName="opacity" values="0.7;1;0.7" dur="1.8s" repeatCount="indefinite" begin="0.5s" />
        <animateTransform attributeName="transform" type="rotate" values="0;360" dur="4s" repeatCount="indefinite" />
      </path>
    </g>
    <g transform="translate(90,90)">
      <path d="M0,-2 L0.5,-0.5 L2,0 L0.5,0.5 L0,2 L-0.5,0.5 L-2,0 L-0.5,-0.5 Z">
        <animate attributeName="opacity" values="0.7;1;0.7" dur="2.2s" repeatCount="indefinite" begin="0.8s" />
        <animateTransform attributeName="transform" type="rotate" values="360;0" dur="5s" repeatCount="indefinite" />
      </path>
    </g>
  </g>
  
  <!-- 团队协作箭头 -->
  <g fill="#FFFFFF" opacity="0.6">
    <!-- 红队协作箭头 -->
    <g transform="translate(20,35) rotate(-45)">
      <path d="M-2,0 L0,-1.5 L0,-0.8 L2,-0.8 L2,0.8 L0,0.8 L0,1.5 Z" />
    </g>
    <g transform="translate(30,55) rotate(45)">
      <path d="M-2,0 L0,-1.5 L0,-0.8 L2,-0.8 L2,0.8 L0,0.8 L0,1.5 Z" />
    </g>
    
    <!-- 蓝队协作箭头 -->
    <g transform="translate(80,35) rotate(-135)">
      <path d="M-2,0 L0,-1.5 L0,-0.8 L2,-0.8 L2,0.8 L0,0.8 L0,1.5 Z" />
    </g>
    <g transform="translate(70,55) rotate(135)">
      <path d="M-2,0 L0,-1.5 L0,-0.8 L2,-0.8 L2,0.8 L0,0.8 L0,1.5 Z" />
    </g>
  </g>
  
  <!-- 团队能量波 -->
  <g stroke="#7B68EE" stroke-width="1" fill="none" opacity="0.5">
    <path d="M25,25 Q50,15 75,25">
      <animate attributeName="opacity" values="0.5;0.8;0.5" dur="3s" repeatCount="indefinite" />
    </path>
    <path d="M25,65 Q50,75 75,65">
      <animate attributeName="opacity" values="0.5;0.8;0.5" dur="3s" repeatCount="indefinite" begin="1.5s" />
    </path>
  </g>
</svg> 